<svg width="24" height="24" viewBox="0 0 24 24" fill="none" xmlns="http://www.w3.org/2000/svg">
<path d="M19.8781 10.0646L20.0049 9.98096C20.2517 9.81028 20.3097 9.4733 20.1389 9.22814C19.9666 8.9808 19.6277 8.92498 19.3861 9.09332C10.9307 15.0048 4.77584 9.38425 4.51727 9.14273C4.29908 8.93853 3.95525 8.94888 3.75207 9.16576C3.54787 9.38352 3.55778 9.72414 3.77378 9.92907C3.78545 9.94015 3.97799 10.1164 4.32939 10.3771L3.2463 12.1633C3.0918 12.4181 3.17284 12.7507 3.42777 12.9065C3.51493 12.959 3.61389 12.9854 3.70965 12.9854C3.8917 12.9854 4.06893 12.8928 4.17198 12.7262L5.23103 10.9811C5.82483 11.3426 6.58624 11.7373 7.49341 12.0708L6.97147 13.8157C6.88504 14.103 7.04668 14.4027 7.33221 14.4881L7.48787 14.5111C7.7186 14.5111 7.93432 14.3595 8.00457 14.125L8.52141 12.404C9.35876 12.633 10.2955 12.7876 11.3065 12.8243V14.5527C11.3065 14.8518 11.548 15.0933 11.8471 15.0933C12.1459 15.0933 12.3875 14.8518 12.3875 14.5527V12.8147C13.2697 12.7663 14.2045 12.6146 15.1806 12.3362L15.846 14.0908C15.9289 14.3069 16.1345 14.4393 16.3515 14.4393L16.5427 14.4052C16.8218 14.2991 16.9634 13.9873 16.8572 13.7083L16.2094 11.9988C17.0982 11.6686 18.0169 11.234 18.9657 10.6574L19.8415 11.8265C19.9482 11.9677 20.111 12.0435 20.2737 12.0435C20.3871 12.0435 20.5004 12.0091 20.5976 11.9349C20.8372 11.7557 20.8856 11.4168 20.7072 11.1782L19.8781 10.0646Z" fill="black"/>
</svg>
