<svg width="22" height="22" viewBox="0 0 22 22" fill="none" xmlns="http://www.w3.org/2000/svg">
<path d="M11.0016 4.62131C12.9545 4.62131 14.2718 5.46486 15.0229 6.16975L17.958 3.30398C16.1554 1.62842 13.8096 0.599976 11.0016 0.599976C6.93405 0.599976 3.42116 2.9342 1.71094 6.33153L5.0736 8.94309C5.91716 6.43553 8.25138 4.62131 11.0016 4.62131Z" fill="#EA4335"/>
<path d="M20.984 11.2311C20.984 10.376 20.9147 9.75197 20.7644 9.10486H11V12.9644H16.7316C16.616 13.9235 15.992 15.368 14.6053 16.3386L17.8871 18.8809C19.8516 17.0666 20.984 14.3973 20.984 11.2311Z" fill="#4285F4"/>
<path d="M5.08512 13.0569C4.86556 12.4098 4.73845 11.7164 4.73845 11C4.73845 10.2835 4.86556 9.59021 5.07356 8.9431L1.7109 6.33154C1.00601 7.74132 0.601562 9.32443 0.601562 11C0.601562 12.6755 1.00601 14.2587 1.7109 15.6684L5.08512 13.0569Z" fill="#FBBC05"/>
<path d="M11.0018 21.4C13.8098 21.4 16.1671 20.4756 17.8889 18.8809L14.6071 16.3387C13.7289 16.9511 12.5502 17.3787 11.0018 17.3787C8.25154 17.3787 5.91732 15.5644 5.08532 13.0569L1.72266 15.6684C3.43288 19.0658 6.93421 21.4 11.0018 21.4Z" fill="#34A853"/>
</svg>
