<?xml version="1.0" standalone="no"?>
<!DOCTYPE svg PUBLIC "-//W3C//DTD SVG 20010904//EN"
 "http://www.w3.org/TR/2001/REC-SVG-20010904/DTD/svg10.dtd">
<svg version="1.0" xmlns="http://www.w3.org/2000/svg"
 width="450.000000pt" height="450.000000pt" viewBox="0 0 450.000000 450.000000"
 preserveAspectRatio="xMidYMid meet">

<g transform="translate(0.000000,450.000000) scale(0.100000,-0.100000)"
fill="#000000" stroke="none">
<path d="M3708 3987 c113 -44 201 -117 279 -232 39 -57 93 -164 108 -213 4
-13 9 -21 12 -18 8 8 -35 131 -70 201 -43 87 -153 192 -247 238 -41 21 -91 39
-110 42 -25 4 -18 -1 28 -18z"/>
<path d="M3458 3910 c-3 -16 -1 -30 4 -30 4 0 8 14 8 30 0 17 -2 30 -4 30 -2
0 -6 -13 -8 -30z"/>
<path d="M3331 3749 c-26 -74 -3 -188 49 -249 l31 -35 -31 50 c-39 66 -57 157
-42 216 13 52 9 63 -7 18z"/>
<path d="M2732 3705 c-7 -14 -12 -35 -12 -46 0 -11 -5 -30 -11 -41 -12 -23 2
-191 23 -273 12 -49 108 -251 152 -320 63 -98 194 -226 269 -263 62 -31 116
-51 152 -57 47 -8 43 -4 -59 57 -92 54 -224 189 -281 286 -97 164 -141 331
-132 499 l5 101 -42 41 c-23 23 -44 41 -47 41 -3 0 -11 -11 -17 -25z"/>
<path d="M4100 3413 c0 -161 -39 -277 -123 -371 l-41 -47 48 45 c81 76 125
163 141 279 8 61 -2 181 -16 181 -5 0 -9 -39 -9 -87z"/>
<path d="M3584 3365 c24 -57 32 -69 40 -56 4 6 -2 23 -13 37 -12 15 -21 33
-21 40 0 8 -5 14 -10 14 -6 0 -4 -14 4 -35z"/>
<path d="M3760 3333 c0 -34 12 -63 26 -63 17 0 19 51 2 68 -17 17 -28 15 -28
-5z"/>
<path d="M3394 3285 c-7 -30 34 -121 68 -151 16 -14 14 -8 -9 26 -33 49 -55
113 -46 136 3 8 2 14 -1 14 -3 0 -8 -11 -12 -25z"/>
<path d="M785 3271 c-73 -23 -195 -103 -195 -127 0 -20 68 -86 210 -204 136
-113 217 -199 346 -365 32 -41 144 -221 144 -231 0 -3 8 -18 19 -32 36 -53
291 -575 291 -598 0 -3 18 -43 39 -87 22 -45 55 -116 74 -157 19 -41 56 -113
82 -160 26 -47 55 -99 64 -115 33 -63 112 -163 149 -188 38 -27 63 -32 117
-24 17 3 37 0 45 -7 8 -6 -16 23 -54 64 -92 101 -213 286 -291 445 -35 71
-108 252 -164 401 -225 607 -350 831 -657 1173 -197 220 -196 220 -219 212z"/>
<path d="M3667 3020 c3 -11 7 -20 9 -20 2 0 4 9 4 20 0 11 -4 20 -9 20 -5 0
-7 -9 -4 -20z"/>
<path d="M678 2816 c-21 -11 -38 -24 -38 -28 0 -4 49 -56 109 -115 179 -178
359 -414 450 -592 11 -20 91 -178 178 -351 255 -504 373 -707 515 -886 51 -65
114 -106 128 -84 5 7 17 10 30 7 14 -4 -5 22 -57 76 -190 199 -259 317 -535
912 -262 567 -389 766 -632 990 -53 50 -100 91 -104 91 -4 1 -24 -8 -44 -20z"/>
<path d="M3815 2730 c-33 -4 -91 -5 -130 -3 -57 4 -79 1 -117 -16 -58 -27 -67
-38 -32 -47 50 -13 182 6 269 37 47 17 85 33 85 35 0 2 -3 3 -7 3 -5 -1 -35
-5 -68 -9z"/>
<path d="M2342 2620 c0 -19 2 -27 5 -17 2 9 2 25 0 35 -3 9 -5 1 -5 -18z"/>
<path d="M2676 2299 c-11 -38 9 -101 41 -130 19 -16 23 -18 12 -4 -23 28 -31
53 -39 110 -5 44 -7 47 -14 24z"/>
<path d="M1131 1829 c58 -106 62 -133 22 -123 -16 4 -38 11 -51 15 -13 5 -44
8 -70 8 -26 -1 -38 -3 -27 -6 76 -17 128 -37 146 -56 11 -12 42 -65 68 -117
27 -52 67 -125 89 -162 86 -141 182 -343 182 -384 0 -97 -64 -227 -139 -281
-53 -40 -60 -47 -24 -29 145 73 244 289 215 465 -8 48 -8 53 4 36 9 -12 14
-45 14 -91 0 -63 4 -79 38 -140 20 -38 46 -86 57 -107 l20 -38 14 33 c8 18 17
53 21 77 8 47 3 56 -131 236 -39 52 -246 395 -363 600 -78 136 -92 155 -117
155 -14 0 -9 -16 32 -91z"/>
<path d="M872 1620 c0 -19 2 -27 5 -17 2 9 2 25 0 35 -3 9 -5 1 -5 -18z"/>
<path d="M744 1465 c-28 -69 -6 -192 44 -243 15 -16 22 -21 16 -13 -50 69 -70
164 -51 239 16 60 12 67 -9 17z"/>
<path d="M989 1093 c5 -10 15 -33 21 -50 13 -35 25 -42 33 -19 3 8 -1 17 -9
20 -8 3 -20 19 -25 36 -6 16 -15 30 -20 30 -5 0 -5 -7 0 -17z"/>
<path d="M1170 1046 c0 -23 19 -66 29 -66 15 0 21 29 11 55 -10 27 -40 35 -40
11z"/>
<path d="M811 987 c-1 -44 20 -96 51 -124 16 -14 15 -10 -5 21 -15 21 -29 54
-32 75 -11 63 -13 67 -14 28z"/>
<path d="M1083 720 c6 -16 13 -28 15 -26 6 6 -10 56 -18 56 -5 0 -3 -13 3 -30z"/>
<path d="M1225 440 c-33 -4 -94 -6 -135 -3 -67 5 -82 3 -125 -19 -48 -25 -48
-25 -25 -38 34 -18 170 -6 258 24 67 23 119 47 97 44 -5 0 -37 -4 -70 -8z"/>
</g>
</svg>
